# xmcd CD database file
#
# Track frame offsets:
#	150
#	46813
#	92782
#	136642
#	169751
#	226916
#	250631
#
# Disc length: 4260 seconds
#
# Revision: 0
# Processed by: cddbd v1.5.2PL0 Copyright (c) Steve Scherf et al.
# Submitted via: CDex 1.70beta2
#
DISCID=4910a207
DTITLE=Glenn Rich - Live Jazz in Las Vegas
DYEAR=1900
DGENRE=Jazz
TTITLE0=Jazz Medley
TTITLE1=That's The Way Love Goes
TTITLE2=Mr. Magic
TTITLE3=Affirmation
TTITLE4=Ain't No Sunshine When She's Gone
TTITLE5=Jov Ridin'
TTITLE6=The World Is A Ghetto
EXTD=
EXTT0=
EXTT1=
EXTT2=
EXTT3=
EXTT4=
EXTT5=
EXTT6=
PLAYORDER=
